<svg width="1440" height="1024" viewBox="0 0 1440 1024" fill="none" xmlns="http://www.w3.org/2000/svg">
<rect width="1440" height="1024" fill="white"/>
<path d="M473.936 647L450.336 717H442.536L422.036 657.3L401.436 717H393.736L370.136 647H377.736L397.936 707.2L418.836 647H425.736L446.336 707.5L466.836 647H473.936ZM527.8 692.9H483.8C484.2 698.367 486.3 702.8 490.1 706.2C493.9 709.533 498.7 711.2 504.5 711.2C507.766 711.2 510.766 710.633 513.5 709.5C516.233 708.3 518.6 706.567 520.6 704.3L524.6 708.9C522.266 711.7 519.333 713.833 515.8 715.3C512.333 716.767 508.5 717.5 504.3 717.5C498.9 717.5 494.1 716.367 489.9 714.1C485.766 711.767 482.533 708.567 480.2 704.5C477.866 700.433 476.7 695.833 476.7 690.7C476.7 685.567 477.8 680.967 480 676.9C482.266 672.833 485.333 669.667 489.2 667.4C493.133 665.133 497.533 664 502.4 664C507.266 664 511.633 665.133 515.5 667.4C519.366 669.667 522.4 672.833 524.6 676.9C526.8 680.9 527.9 685.5 527.9 690.7L527.8 692.9ZM502.4 670.1C497.333 670.1 493.066 671.733 489.6 675C486.2 678.2 484.266 682.4 483.8 687.6H521.1C520.633 682.4 518.666 678.2 515.2 675C511.8 671.733 507.533 670.1 502.4 670.1ZM569.451 664C574.385 664 578.851 665.133 582.851 667.4C586.851 669.6 589.985 672.733 592.251 676.8C594.518 680.867 595.651 685.5 595.651 690.7C595.651 695.9 594.518 700.533 592.251 704.6C589.985 708.667 586.851 711.833 582.851 714.1C578.851 716.367 574.385 717.5 569.451 717.5C565.051 717.5 561.085 716.567 557.551 714.7C554.085 712.833 551.285 710.133 549.151 706.6V717H542.351V642.8H549.451V674.4C551.651 671 554.451 668.433 557.851 666.7C561.318 664.9 565.185 664 569.451 664ZM568.951 711.2C572.618 711.2 575.951 710.367 578.951 708.7C581.951 706.967 584.285 704.533 585.951 701.4C587.685 698.267 588.551 694.7 588.551 690.7C588.551 686.7 587.685 683.133 585.951 680C584.285 676.867 581.951 674.467 578.951 672.8C575.951 671.067 572.618 670.2 568.951 670.2C565.218 670.2 561.851 671.067 558.851 672.8C555.918 674.467 553.585 676.867 551.851 680C550.185 683.133 549.351 686.7 549.351 690.7C549.351 694.7 550.185 698.267 551.851 701.4C553.585 704.533 555.918 706.967 558.851 708.7C561.851 710.367 565.218 711.2 568.951 711.2ZM657.096 717.6C651.896 717.6 646.896 716.767 642.096 715.1C637.363 713.433 633.696 711.233 631.096 708.5L633.996 702.8C636.53 705.333 639.896 707.4 644.096 709C648.296 710.533 652.63 711.3 657.096 711.3C663.363 711.3 668.063 710.167 671.196 707.9C674.33 705.567 675.896 702.567 675.896 698.9C675.896 696.1 675.03 693.867 673.296 692.2C671.63 690.533 669.563 689.267 667.096 688.4C664.63 687.467 661.196 686.467 656.796 685.4C651.53 684.067 647.33 682.8 644.196 681.6C641.063 680.333 638.363 678.433 636.096 675.9C633.896 673.367 632.796 669.933 632.796 665.6C632.796 662.067 633.73 658.867 635.596 656C637.463 653.067 640.33 650.733 644.196 649C648.063 647.267 652.863 646.4 658.596 646.4C662.596 646.4 666.496 646.967 670.296 648.1C674.163 649.167 677.496 650.667 680.296 652.6L677.796 658.5C674.863 656.567 671.73 655.133 668.396 654.2C665.063 653.2 661.796 652.7 658.596 652.7C652.463 652.7 647.83 653.9 644.696 656.3C641.63 658.633 640.096 661.667 640.096 665.4C640.096 668.2 640.93 670.467 642.596 672.2C644.33 673.867 646.463 675.167 648.996 676.1C651.596 676.967 655.063 677.933 659.396 679C664.53 680.267 668.663 681.533 671.796 682.8C674.996 684 677.696 685.867 679.896 688.4C682.096 690.867 683.196 694.233 683.196 698.5C683.196 702.033 682.23 705.267 680.296 708.2C678.43 711.067 675.53 713.367 671.596 715.1C667.663 716.767 662.83 717.6 657.096 717.6ZM719.62 717.5C714.42 717.5 709.753 716.367 705.62 714.1C701.553 711.833 698.353 708.667 696.02 704.6C693.687 700.467 692.52 695.833 692.52 690.7C692.52 685.567 693.687 680.967 696.02 676.9C698.353 672.833 701.553 669.667 705.62 667.4C709.753 665.133 714.42 664 719.62 664C724.153 664 728.187 664.9 731.72 666.7C735.32 668.433 738.153 671 740.22 674.4L734.92 678C733.187 675.4 730.987 673.467 728.32 672.2C725.653 670.867 722.753 670.2 719.62 670.2C715.82 670.2 712.387 671.067 709.32 672.8C706.32 674.467 703.953 676.867 702.22 680C700.553 683.133 699.72 686.7 699.72 690.7C699.72 694.767 700.553 698.367 702.22 701.5C703.953 704.567 706.32 706.967 709.32 708.7C712.387 710.367 715.82 711.2 719.62 711.2C722.753 711.2 725.653 710.567 728.32 709.3C730.987 708.033 733.187 706.1 734.92 703.5L740.22 707.1C738.153 710.5 735.32 713.1 731.72 714.9C728.12 716.633 724.087 717.5 719.62 717.5ZM760.968 674.7C762.634 671.167 765.101 668.5 768.368 666.7C771.701 664.9 775.801 664 780.668 664V670.9L778.968 670.8C773.434 670.8 769.101 672.5 765.968 675.9C762.834 679.3 761.268 684.067 761.268 690.2V717H754.168V664.4H760.968V674.7ZM811.825 664C818.692 664 823.959 665.733 827.625 669.2C831.292 672.6 833.125 677.667 833.125 684.4V717H826.325V708.8C824.725 711.533 822.359 713.667 819.225 715.2C816.159 716.733 812.492 717.5 808.225 717.5C802.359 717.5 797.692 716.1 794.225 713.3C790.759 710.5 789.025 706.8 789.025 702.2C789.025 697.733 790.625 694.133 793.825 691.4C797.092 688.667 802.259 687.3 809.325 687.3H826.025V684.1C826.025 679.567 824.759 676.133 822.225 673.8C819.692 671.4 815.992 670.2 811.125 670.2C807.792 670.2 804.592 670.767 801.525 671.9C798.459 672.967 795.825 674.467 793.625 676.4L790.425 671.1C793.092 668.833 796.292 667.1 800.025 665.9C803.759 664.633 807.692 664 811.825 664ZM809.325 711.9C813.325 711.9 816.759 711 819.625 709.2C822.492 707.333 824.625 704.667 826.025 701.2V692.6H809.525C800.525 692.6 796.025 695.733 796.025 702C796.025 705.067 797.192 707.5 799.525 709.3C801.859 711.033 805.125 711.9 809.325 711.9ZM879.51 664C884.443 664 888.91 665.133 892.91 667.4C896.91 669.6 900.043 672.733 902.31 676.8C904.576 680.867 905.71 685.5 905.71 690.7C905.71 695.967 904.576 700.633 902.31 704.7C900.043 708.767 896.91 711.933 892.91 714.2C888.976 716.4 884.51 717.5 879.51 717.5C875.243 717.5 871.376 716.633 867.91 714.9C864.51 713.1 861.71 710.5 859.51 707.1V736.4H852.41V664.4H859.21V674.8C861.343 671.333 864.143 668.667 867.61 666.8C871.143 664.933 875.11 664 879.51 664ZM879.01 711.2C882.676 711.2 886.01 710.367 889.01 708.7C892.01 706.967 894.343 704.533 896.01 701.4C897.743 698.267 898.61 694.7 898.61 690.7C898.61 686.7 897.743 683.167 896.01 680.1C894.343 676.967 892.01 674.533 889.01 672.8C886.01 671.067 882.676 670.2 879.01 670.2C875.276 670.2 871.91 671.067 868.91 672.8C865.976 674.533 863.643 676.967 861.91 680.1C860.243 683.167 859.41 686.7 859.41 690.7C859.41 694.7 860.243 698.267 861.91 701.4C863.643 704.533 865.976 706.967 868.91 708.7C871.91 710.367 875.276 711.2 879.01 711.2ZM920.183 664.4H927.283V717H920.183V664.4ZM923.783 652.9C922.317 652.9 921.083 652.4 920.083 651.4C919.083 650.4 918.583 649.2 918.583 647.8C918.583 646.467 919.083 645.3 920.083 644.3C921.083 643.3 922.317 642.8 923.783 642.8C925.25 642.8 926.483 643.3 927.483 644.3C928.483 645.233 928.983 646.367 928.983 647.7C928.983 649.167 928.483 650.4 927.483 651.4C926.483 652.4 925.25 652.9 923.783 652.9ZM973.839 664C980.439 664 985.672 665.933 989.539 669.8C993.472 673.6 995.439 679.167 995.439 686.5V717H988.339V687.2C988.339 681.733 986.972 677.567 984.239 674.7C981.505 671.833 977.605 670.4 972.539 670.4C966.872 670.4 962.372 672.1 959.039 675.5C955.772 678.833 954.139 683.467 954.139 689.4V717H947.039V664.4H953.839V674.1C955.772 670.9 958.439 668.433 961.839 666.7C965.305 664.9 969.305 664 973.839 664ZM1063.61 664.4V710.6C1063.61 719.533 1061.41 726.133 1057.01 730.4C1052.68 734.733 1046.11 736.9 1037.31 736.9C1032.44 736.9 1027.81 736.167 1023.41 734.7C1019.08 733.3 1015.54 731.333 1012.81 728.8L1016.41 723.4C1018.94 725.667 1022.01 727.433 1025.61 728.7C1029.28 729.967 1033.11 730.6 1037.11 730.6C1043.78 730.6 1048.68 729.033 1051.81 725.9C1054.94 722.833 1056.51 718.033 1056.51 711.5V704.8C1054.31 708.133 1051.41 710.667 1047.81 712.4C1044.28 714.133 1040.34 715 1036.01 715C1031.08 715 1026.58 713.933 1022.51 711.8C1018.51 709.6 1015.34 706.567 1013.01 702.7C1010.74 698.767 1009.61 694.333 1009.61 689.4C1009.61 684.467 1010.74 680.067 1013.01 676.2C1015.34 672.333 1018.51 669.333 1022.51 667.2C1026.51 665.067 1031.01 664 1036.01 664C1040.48 664 1044.51 664.9 1048.11 666.7C1051.71 668.5 1054.61 671.1 1056.81 674.5V664.4H1063.61ZM1036.71 708.7C1040.51 708.7 1043.94 707.9 1047.01 706.3C1050.08 704.633 1052.44 702.333 1054.11 699.4C1055.84 696.467 1056.71 693.133 1056.71 689.4C1056.71 685.667 1055.84 682.367 1054.11 679.5C1052.44 676.567 1050.08 674.3 1047.01 672.7C1044.01 671.033 1040.58 670.2 1036.71 670.2C1032.91 670.2 1029.48 671 1026.41 672.6C1023.41 674.2 1021.04 676.467 1019.31 679.4C1017.64 682.333 1016.81 685.667 1016.81 689.4C1016.81 693.133 1017.64 696.467 1019.31 699.4C1021.04 702.333 1023.41 704.633 1026.41 706.3C1029.48 707.9 1032.91 708.7 1036.71 708.7Z" fill="black"/>
<g clip-path="url(#clip0)">
<path d="M667.389 447.558C667.389 435.437 670.711 428.843 689.056 425.703C701.511 423.568 717.48 423.301 732.376 425.703C744.141 427.603 754.043 436.176 754.043 447.558V487.548C754.043 499.277 744.429 508.885 732.376 508.885H689.056C674.354 508.885 661.963 521.147 661.963 535.011V554.197H647.068C634.469 554.197 627.133 545.31 624.052 532.875C619.895 516.169 620.071 506.215 624.052 490.216C627.503 476.258 638.529 468.894 651.129 468.894H710.724V463.555H667.388V447.557L667.389 447.558Z" fill="url(#paint0_linear)"/>
<path d="M754.044 575.534C754.044 587.656 743.291 593.795 732.377 596.857C715.957 601.473 702.78 600.766 689.057 596.857C677.597 593.591 667.39 586.918 667.39 575.534V535.544C667.39 524.035 677.196 514.208 689.057 514.208H732.377C746.806 514.208 759.47 502.009 759.47 487.548V468.895H775.713C788.328 468.895 794.268 478.064 797.38 490.217C801.714 507.096 801.906 519.719 797.38 532.877C792.999 545.657 788.312 554.199 775.713 554.199H710.725V559.537H754.044V575.535V575.534Z" fill="url(#paint1_linear)"/>
<path d="M678.222 444.905C678.222 440.477 681.85 436.897 686.345 436.897C690.823 436.897 694.467 440.477 694.467 444.905C694.467 449.318 690.824 452.897 686.345 452.897C681.852 452.897 678.222 449.317 678.222 444.905ZM726.966 578.188C726.966 573.775 730.61 570.197 735.088 570.197C739.581 570.197 743.211 573.776 743.211 578.188C743.211 582.616 739.583 586.196 735.088 586.196C730.61 586.196 726.966 582.617 726.966 578.188Z" fill="white"/>
</g>
<defs>
<linearGradient id="paint0_linear" x1="754.044" y1="474.614" x2="621.001" y2="473.533" gradientUnits="userSpaceOnUse">
<stop stop-color="#366A96"/>
<stop offset="1" stop-color="#3679B0"/>
</linearGradient>
<linearGradient id="paint1_linear" x1="800.702" y1="534.477" x2="537.34" y2="534.477" gradientUnits="userSpaceOnUse">
<stop stop-color="#FFC836"/>
<stop offset="1" stop-color="#FFE873"/>
</linearGradient>
<clipPath id="clip0">
<rect width="259" height="290" fill="white" transform="translate(582 310)"/>
</clipPath>
</defs>
</svg>
